<svg width="15" height="16" viewBox="0 0 15 16" fill="none" xmlns="http://www.w3.org/2000/svg">
<path fill-rule="evenodd" clip-rule="evenodd" d="M3.16239 0.63897L13.4156 5.80515C14.2215 6.18449 14.7364 6.99536 14.7364 7.8868C14.7364 8.77825 14.2215 9.58912 13.4155 9.96846L3.16123 15.1348C2.70485 15.3923 2.15132 15.4139 1.67559 15.191C1.19272 14.9648 0.851951 14.5157 0.763927 13.9899C0.756458 13.9453 0.753481 13.9 0.755041 13.8548C0.761534 13.6667 0.805468 13.4818 0.884158 13.311L2.82306 8.62684C2.89554 8.38679 2.93567 8.13805 2.94238 7.88728C2.93565 7.63648 2.89551 7.38771 2.82306 7.14764L0.884162 2.46354C0.805465 2.29272 0.761534 2.10785 0.755041 1.9197C0.753492 1.87481 0.756417 1.82987 0.763773 1.78555C0.851183 1.25897 1.19204 0.809098 1.67531 0.582452C2.15134 0.359205 2.70555 0.380692 3.16239 0.63897ZM2.49985 1.8191C2.4235 1.77444 2.33005 1.77019 2.24995 1.80776C2.19628 1.83293 2.1532 1.87471 2.12627 1.92581C2.1271 1.92776 2.12792 1.92973 2.12873 1.93169L4.0857 6.65944C4.09339 6.67803 4.10026 6.69696 4.10627 6.71617C4.22349 7.0908 4.28729 7.48015 4.29578 7.87261C4.29599 7.88235 4.29599 7.8921 4.29578 7.90184C4.28732 8.29434 4.22352 8.68372 4.10625 9.05839C4.10025 9.07757 4.09339 9.09649 4.0857 9.11506L2.12873 13.8428C2.12799 13.8446 2.12723 13.8464 2.12647 13.8482C2.15345 13.899 2.19637 13.9404 2.24971 13.9654L2.24987 13.9655C2.32974 14.0029 2.42308 13.9988 2.49952 13.9542C2.51153 13.9471 2.52374 13.9405 2.53616 13.9343L12.8154 8.75539C12.8218 8.75216 12.8283 8.74903 12.8348 8.74601C13.1691 8.5907 13.383 8.25549 13.383 7.8868C13.383 7.51811 13.1691 7.1829 12.8348 7.02759C12.8283 7.02456 12.8218 7.02143 12.8154 7.0182L2.53704 1.83933C2.52443 1.83298 2.51203 1.82623 2.49985 1.8191Z" fill="white"/>
</svg>
